<svg xmlns="http://www.w3.org/2000/svg" width="18" height="18" fill="none" viewBox="0 0 18 18"><path fill="#fff" d="M1.625 17.25q-.526 0-.951-.413-.424-.411-.424-.962V2.125q0-.526.424-.951.425-.424.951-.424h13.75q.55 0 .962.424.413.424.413.951v1.237H9.83q-1.33 0-2.2.871-.872.871-.872 2.177v5.203q0 1.305.871 2.177.87.87 2.2.87h6.921v1.215q0 .55-.413.962a1.32 1.32 0 0 1-.962.413zm8.204-3.965q-.78 0-1.237-.458-.459-.458-.459-1.214V6.41q0-.779.459-1.226.458-.447 1.237-.447h6.165q.78 0 1.237.447.459.447.459 1.226v5.203q0 .756-.459 1.214-.458.458-1.237.458zm2.613-2.818q.573 0 1.02-.447a1.43 1.43 0 0 0 .446-1.043q0-.573-.447-1.008-.446-.436-1.02-.436-.572 0-1.02.436-.446.435-.446 1.008 0 .596.447 1.043t1.02.447" style="fill:#fff;fill-opacity:1"/></svg>