<svg xmlns="http://www.w3.org/2000/svg" width="17" height="18" fill="none" viewBox="0 0 17 18"><path fill="#fff" d="M7.417 4.477 2.108 9.786a1 1 0 0 1-.758.311 1.1 1.1 0 0 1-.758-.338A1.14 1.14 0 0 1 .28 9a1 1 0 0 1 .312-.758l7.15-7.15a.95.95 0 0 1 .352-.23q.19-.068.406-.068t.406.068a.95.95 0 0 1 .352.23l7.15 7.15q.298.297.298.745 0 .447-.298.772a1.05 1.05 0 0 1-.772.325q-.446 0-.771-.325L9.583 4.477v12.107q0 .46-.311.771a1.05 1.05 0 0 1-.772.312q-.46 0-.772-.312a1.05 1.05 0 0 1-.311-.771z" style="fill:#fff;fill-opacity:1"/></svg>