<svg xmlns="http://www.w3.org/2000/svg" width="21" height="20" fill="none" viewBox="0 0 21 20"><mask id="a" width="21" height="20" x="0" y="0" maskUnits="userSpaceOnUse" style="mask-type:luminance"><path fill="#fff" d="M10.5 19.822c5.424 0 9.822-4.398 9.822-9.822S15.924.18 10.5.18.68 4.576.68 10s4.397 9.822 9.821 9.822" style="fill:#fff;fill-opacity:1"/></mask><g mask="url(#a)"><path stroke="#fff" stroke-width="1.7" d="M19.472 10a8.972 8.972 0 1 1-17.943 0 8.972 8.972 0 0 1 17.943 0Z" style="stroke:#fff;stroke-opacity:1"/><path fill="#fff" d="M10.5 12.566a2.566 2.566 0 1 0 0-5.131 2.566 2.566 0 0 0 0 5.131M4.68 7.09a6.548 6.548 0 1 0 0-13.095 6.548 6.548 0 0 0 0 13.095m11.64 18.915a6.548 6.548 0 1 0 0-13.095 6.548 6.548 0 0 0 0 13.095m1.494-16.004a1.59 1.59 0 1 0-3.18 0 1.59 1.59 0 0 0 3.18 0M15.82 5.953a1.272 1.272 0 1 0-2.545 0 1.272 1.272 0 0 0 2.545 0m-9.462 4.05a1.59 1.59 0 1 0-3.18 0 1.59 1.59 0 0 0 3.18 0m1.359 4.049a1.272 1.272 0 1 0-2.545 0 1.272 1.272 0 0 0 2.545 0" style="fill:#fff;fill-opacity:1"/></g></svg>