<svg xmlns="http://www.w3.org/2000/svg" width="22" height="16" fill="none" viewBox="0 0 22 16"><path fill="#fff" d="M11.05 16q-3.35 0-5.7-2.325T3 8v-.175l-1.6 1.6-1.4-1.4 4-4 4 4-1.4 1.4-1.6-1.6V8q0 2.5 1.763 4.25T11.05 14q.65 0 1.275-.15t1.225-.45l1.5 1.5a8.3 8.3 0 0 1-1.95.825 7.7 7.7 0 0 1-2.05.275M18 11.975l-4-4 1.4-1.4 1.6 1.6V8q0-2.5-1.762-4.25T10.95 2q-.65 0-1.275.15T8.45 2.6l-1.5-1.5A8.3 8.3 0 0 1 8.9.275 7.7 7.7 0 0 1 10.95 0q3.35 0 5.7 2.325T19 8v.175l1.6-1.6 1.4 1.4z" style="fill:#fff;fill-opacity:1"/></svg>