<svg xmlns="http://www.w3.org/2000/svg" width="19" height="20" fill="none" viewBox="0 0 19 20"><path fill="#fff" d="M8.1 12.25 5.95 10.1a.95.95 0 0 0-.7-.275.95.95 0 0 0-.7.275.95.95 0 0 0-.275.7q0 .425.275.7l2.85 2.85q.3.3.7.3t.7-.3l5.65-5.65a.95.95 0 0 0 .275-.7.95.95 0 0 0-.275-.7.95.95 0 0 0-.7-.275.95.95 0 0 0-.7.275zM2.5 20q-.825 0-1.412-.587A1.93 1.93 0 0 1 .5 18V4q0-.824.587-1.412A1.93 1.93 0 0 1 2.5 2h4.2q.326-.9 1.087-1.45A2.86 2.86 0 0 1 9.5 0q.95 0 1.713.55.762.55 1.087 1.45h4.2q.824 0 1.413.587.587.588.587 1.413v14q0 .824-.587 1.413A1.93 1.93 0 0 1 16.5 20zm7-16.75a.73.73 0 0 0 .75-.75.73.73 0 0 0-.75-.75.73.73 0 0 0-.75.75.73.73 0 0 0 .75.75" style="fill:#fff;fill-opacity:1"/></svg>